<svg width="47" height="36" viewBox="0 0 47 36" fill="none" xmlns="http://www.w3.org/2000/svg">
<path fill-rule="evenodd" clip-rule="evenodd" d="M23.3422 22.3288L23.5843 22.3289L24.1258 22.3308C28.2652 22.358 37.7249 22.7762 37.7249 29.1879C37.7249 35.5575 28.595 35.9729 24.1904 36L22.5585 36C18.4188 35.9728 8.95727 35.5551 8.95727 29.1514C8.95727 22.7738 18.4188 22.3579 22.5585 22.3307L23.1001 22.3289C23.1841 22.3288 23.2648 22.3288 23.3422 22.3288ZM23.3422 25.545C18.2477 25.545 12.1734 26.1711 12.1734 29.1514C12.1734 32.0643 17.8852 32.7453 22.8765 32.7839L23.3422 32.7857C28.4366 32.7857 34.5087 32.1618 34.5087 29.1879C34.5087 26.1775 28.4366 25.545 23.3422 25.545ZM40.3956 21.4588C45.5908 22.2371 46.6822 24.6771 46.6822 26.5875C46.6822 27.7539 46.2233 29.883 43.1572 31.0515C42.9686 31.1223 42.7756 31.1566 42.5848 31.1566C41.9372 31.1566 41.3262 30.7621 41.0817 30.121C40.7644 29.2912 41.1825 28.3607 42.0123 28.0455C43.466 27.4923 43.466 26.8812 43.466 26.5875C43.466 25.6484 42.2717 24.9923 39.9175 24.6406C39.0405 24.5077 38.4338 23.6908 38.5645 22.8096C38.6953 21.9305 39.5101 21.3451 40.3956 21.4588ZM8.11763 22.8096C8.24842 23.6908 7.64164 24.5077 6.76469 24.6406C4.41045 24.9923 3.21618 25.6484 3.21618 26.5875C3.21618 26.8812 3.21618 27.4902 4.67203 28.0455C5.50181 28.3607 5.91991 29.2912 5.60258 30.121C5.35815 30.7621 4.74708 31.1566 4.09955 31.1566C3.90873 31.1566 3.71576 31.1223 3.52707 31.0515C0.458841 29.8809 0 27.7518 0 26.5875C0 24.6792 1.09136 22.2371 6.2887 21.4588C7.17422 21.3473 7.9847 21.9305 8.11763 22.8096ZM23.3422 0C28.7453 0 33.1386 4.39544 33.1386 9.79648C33.1386 15.1975 28.7453 19.593 23.3422 19.593H23.2843C20.6684 19.5844 18.2177 18.5595 16.3823 16.707C14.5427 14.8566 13.5371 12.3994 13.5477 9.79004C13.5477 4.39544 17.9411 0 23.3422 0ZM23.3422 3.21618C19.7143 3.21618 16.764 6.16863 16.764 9.79648C16.7576 11.5547 17.4308 13.1992 18.6637 14.4406C19.8966 15.6821 21.539 16.3703 23.2886 16.3768L23.3422 17.9849V16.3768C26.97 16.3768 29.9225 13.4265 29.9225 9.79648C29.9225 6.16863 26.97 3.21618 23.3422 3.21618ZM36.6121 2.10016C40.3815 2.71981 43.1195 5.94457 43.1195 9.76753C43.1109 13.6162 40.2357 16.9182 36.4299 17.4521C36.3548 17.4628 36.2798 17.4671 36.2069 17.4671C35.4178 17.4671 34.7296 16.886 34.6159 16.082C34.4937 15.2007 35.1048 14.3881 35.986 14.2659C38.2159 13.9529 39.899 12.0189 39.9033 9.76324C39.9033 7.52693 38.2995 5.63582 36.0889 5.27346C35.2141 5.1298 34.6202 4.30217 34.7639 3.42523C34.9097 2.54828 35.7309 1.9608 36.6121 2.10016ZM11.9204 3.42523C12.0641 4.30217 11.4702 5.1298 10.5954 5.27346C8.38479 5.63582 6.78099 7.52693 6.78099 9.76753C6.78528 12.0189 8.46841 13.955 10.6961 14.2659C11.5774 14.3881 12.1885 15.2007 12.0662 16.082C11.9526 16.886 11.2643 17.4671 10.4753 17.4671C10.4024 17.4671 10.3274 17.4628 10.2523 17.4521C6.44651 16.9182 3.57339 13.6162 3.56481 9.77182C3.56481 5.94457 6.30285 2.71981 10.0722 2.10016C10.9749 1.95865 11.7746 2.55257 11.9204 3.42523Z" fill="white"/>
</svg>
