<svg width="43" height="39" viewBox="0 0 43 39" fill="none" xmlns="http://www.w3.org/2000/svg">
<path fill-rule="evenodd" clip-rule="evenodd" d="M21.4751 0C23.6625 0 25.6205 1.13444 26.7056 3.03448L42.116 29.9781C43.1947 31.8631 43.1882 34.1127 42.0967 35.9934C41.0051 37.8763 39.0558 39 36.8834 39H6.03896C3.86443 39 1.91507 37.8763 0.823519 35.9934C-0.268035 34.1127 -0.274468 31.8631 0.804219 29.9781L16.2447 3.03019C17.3298 1.1323 19.2856 0 21.4751 0ZM21.473 3.21676C20.4522 3.21676 19.5429 3.74431 19.0325 4.62999L3.59637 31.5757C3.09455 32.455 3.09884 33.5036 3.60709 34.3807C4.11534 35.2578 5.02461 35.7832 6.03896 35.7832H36.8834C37.8956 35.7832 38.8049 35.2578 39.3131 34.3807C39.8235 33.5036 39.8278 32.455 39.3217 31.5757L23.9134 4.62999C23.4052 3.74431 22.4959 3.21676 21.473 3.21676ZM21.4584 26.8042C22.6443 26.8042 23.6029 27.7628 23.6029 28.9487C23.6029 30.1346 22.6443 31.0932 21.4584 31.0932C20.2725 31.0932 19.3032 30.1346 19.3032 28.9487C19.3032 27.7628 20.2532 26.8042 21.4369 26.8042H21.4584ZM21.4541 14.0765C22.3419 14.0765 23.0625 14.7971 23.0625 15.6849V22.3329C23.0625 23.2207 22.3419 23.9413 21.4541 23.9413C20.5663 23.9413 19.8457 23.2207 19.8457 22.3329V15.6849C19.8457 14.7971 20.5663 14.0765 21.4541 14.0765Z" fill="white"/>
</svg>
