<svg width="39" height="39" viewBox="0 0 39 39" fill="none" xmlns="http://www.w3.org/2000/svg">
<path fill-rule="evenodd" clip-rule="evenodd" d="M8.5 22C16.638 22 17 24.76 17 30.5C17 33.376 17 35.422 15.792 36.92C14.402 38.646 11.872 39 8.5 39C5.128 39 2.598 38.646 1.208 36.92C0 35.422 0 33.378 0 30.55L1.5 30.5H0C0 24.76 0.362 22 8.5 22ZM30.5 22C38.638 22 39 24.76 39 30.5C39 33.376 39 35.422 37.792 36.92C36.402 38.646 33.872 39 30.5 39C27.128 39 24.598 38.646 23.208 36.92C22 35.422 22 33.378 22 30.55L23.5 30.5H22C22 24.76 22.362 22 30.5 22ZM8.91232 25.0009L8.5 25C3.28205 25 3.01446 25.3744 3.00074 29.7541L3.00158 31.4604C3.01106 33.2023 3.07743 34.4606 3.542 35.04C4.072 35.696 5.646 36 8.5 36C11.354 36 12.928 35.694 13.458 35.038C14 34.364 14 32.764 14 30.548C14 25.5476 14 25.0244 8.91232 25.0009ZM30.9123 25.0009L30.5 25C25.2821 25 25.0145 25.3744 25.0007 29.7541L25.0016 31.4604C25.0111 33.2023 25.0774 34.4606 25.542 35.04C26.072 35.696 27.646 36 30.5 36C33.354 36 34.928 35.694 35.458 35.038C36 34.364 36 32.764 36 30.548C36 25.5476 36 25.0244 30.9123 25.0009ZM8.5 0C16.638 0 17 2.76 17 8.5C17 11.376 17 13.422 15.792 14.92C14.402 16.646 11.872 17 8.5 17C5.128 17 2.598 16.646 1.208 14.92C0 13.422 0 11.378 0 8.55L1.5 8.5H0C0 2.76 0.362 0 8.5 0ZM30.5 0C38.638 0 39 2.76 39 8.5C39 11.376 39 13.422 37.792 14.92C36.402 16.646 33.872 17 30.5 17C27.128 17 24.598 16.646 23.208 14.92C22 13.422 22 11.378 22 8.55L23.5 8.5H22C22 2.76 22.362 0 30.5 0ZM8.91232 3.00089L8.5 3C3.28205 3 3.01446 3.37443 3.00074 7.7541L3.00158 9.46036C3.01106 11.2023 3.07743 12.4606 3.542 13.04C4.072 13.696 5.646 14 8.5 14C11.354 14 12.928 13.694 13.458 13.038C14 12.364 14 10.764 14 8.548C14 3.54759 14 3.02443 8.91232 3.00089ZM30.9123 3.00089L30.5 3C25.2821 3 25.0145 3.37443 25.0007 7.7541L25.0016 9.46036C25.0111 11.2023 25.0774 12.4606 25.542 13.04C26.072 13.696 27.646 14 30.5 14C33.354 14 34.928 13.694 35.458 13.038C36 12.364 36 10.764 36 8.548C36 3.54759 36 3.02443 30.9123 3.00089Z" fill="white"/>
</svg>
